<mxfile host="app.diagrams.net" modified="2024-01-16T23:20:28.985Z" agent="Mozilla/5.0 (Macintosh; Intel Mac OS X 10_15_7) AppleWebKit/605.1.15 (KHTML, like Gecko) Version/17.0 Safari/605.1.15" etag="8OZXa5C9KFKmS_sYYTm7" version="22.1.20" type="device">
  <diagram name="Page-1" id="c7558073-3199-34d8-9f00-42111426c3f3">
    <mxGraphModel dx="954" dy="650" grid="1" gridSize="10" guides="1" tooltips="1" connect="1" arrows="1" fold="1" page="1" pageScale="1" pageWidth="826" pageHeight="1169" background="none" math="1" shadow="0">
      <root>
        <mxCell id="0" />
        <mxCell id="1" parent="0" />
        <mxCell id="ln7IvSCS3IytbbHzS-Sz-100" style="rounded=0;orthogonalLoop=1;jettySize=auto;html=1;exitX=1;exitY=0.5;exitDx=0;exitDy=0;entryX=0;entryY=0.5;entryDx=0;entryDy=0;edgeStyle=orthogonalEdgeStyle;endArrow=blockThin;endFill=1;" edge="1" parent="1" source="ln7IvSCS3IytbbHzS-Sz-96" target="ln7IvSCS3IytbbHzS-Sz-99">
          <mxGeometry relative="1" as="geometry" />
        </mxCell>
        <mxCell id="ln7IvSCS3IytbbHzS-Sz-96" value="" style="rounded=1;whiteSpace=wrap;html=1;" vertex="1" parent="1">
          <mxGeometry x="402" y="161" width="10" height="60" as="geometry" />
        </mxCell>
        <mxCell id="ln7IvSCS3IytbbHzS-Sz-98" style="rounded=0;orthogonalLoop=1;jettySize=auto;html=1;exitX=1;exitY=0.5;exitDx=0;exitDy=0;entryX=0;entryY=0.5;entryDx=0;entryDy=0;edgeStyle=orthogonalEdgeStyle;endArrow=blockThin;endFill=1;" edge="1" parent="1" source="ln7IvSCS3IytbbHzS-Sz-97" target="ln7IvSCS3IytbbHzS-Sz-96">
          <mxGeometry relative="1" as="geometry" />
        </mxCell>
        <mxCell id="ln7IvSCS3IytbbHzS-Sz-97" value="&lt;font face=&quot;Courier New&quot;&gt;[2, 1, 4]&amp;nbsp;&lt;/font&gt;&lt;b style=&quot;caret-color: rgb(32, 33, 36); color: rgb(32, 33, 36); font-family: &amp;quot;Google Sans&amp;quot;, arial, sans-serif; font-size: 14px; text-align: left;&quot;&gt;→&lt;/b&gt;&lt;font face=&quot;Courier New&quot;&gt;&amp;nbsp;[6, 5, 8]&lt;/font&gt;" style="rounded=0;whiteSpace=wrap;html=1;" vertex="1" parent="1">
          <mxGeometry x="202" y="161" width="170" height="60" as="geometry" />
        </mxCell>
        <mxCell id="ln7IvSCS3IytbbHzS-Sz-107" style="rounded=0;orthogonalLoop=1;jettySize=auto;html=1;exitX=1;exitY=0.5;exitDx=0;exitDy=0;entryX=0;entryY=0.5;entryDx=0;entryDy=0;edgeStyle=orthogonalEdgeStyle;endArrow=blockThin;endFill=1;" edge="1" parent="1" source="ln7IvSCS3IytbbHzS-Sz-99" target="ln7IvSCS3IytbbHzS-Sz-106">
          <mxGeometry relative="1" as="geometry" />
        </mxCell>
        <mxCell id="ln7IvSCS3IytbbHzS-Sz-99" value="Encoder" style="rounded=1;whiteSpace=wrap;html=1;" vertex="1" parent="1">
          <mxGeometry x="442" y="161" width="80" height="60" as="geometry" />
        </mxCell>
        <mxCell id="ln7IvSCS3IytbbHzS-Sz-105" style="rounded=0;orthogonalLoop=1;jettySize=auto;html=1;exitX=1;exitY=0.5;exitDx=0;exitDy=0;entryX=0;entryY=0.5;entryDx=0;entryDy=0;edgeStyle=orthogonalEdgeStyle;endArrow=blockThin;endFill=1;" edge="1" parent="1" source="ln7IvSCS3IytbbHzS-Sz-101" target="ln7IvSCS3IytbbHzS-Sz-102">
          <mxGeometry relative="1" as="geometry" />
        </mxCell>
        <mxCell id="ln7IvSCS3IytbbHzS-Sz-101" value="&lt;font face=&quot;Courier New&quot;&gt;[]&lt;/font&gt;" style="rounded=0;whiteSpace=wrap;html=1;" vertex="1" parent="1">
          <mxGeometry x="202" y="241" width="170" height="60" as="geometry" />
        </mxCell>
        <mxCell id="ln7IvSCS3IytbbHzS-Sz-112" style="rounded=0;orthogonalLoop=1;jettySize=auto;html=1;exitX=1;exitY=0.5;exitDx=0;exitDy=0;entryX=0;entryY=0.75;entryDx=0;entryDy=0;edgeStyle=orthogonalEdgeStyle;curved=0;endArrow=blockThin;endFill=1;" edge="1" parent="1" source="ln7IvSCS3IytbbHzS-Sz-102" target="ln7IvSCS3IytbbHzS-Sz-106">
          <mxGeometry relative="1" as="geometry" />
        </mxCell>
        <mxCell id="ln7IvSCS3IytbbHzS-Sz-102" value="" style="rounded=1;whiteSpace=wrap;html=1;" vertex="1" parent="1">
          <mxGeometry x="403" y="241" width="10" height="60" as="geometry" />
        </mxCell>
        <mxCell id="ln7IvSCS3IytbbHzS-Sz-118" style="rounded=0;orthogonalLoop=1;jettySize=auto;html=1;exitX=1;exitY=0.25;exitDx=0;exitDy=0;entryX=0;entryY=0.5;entryDx=0;entryDy=0;edgeStyle=orthogonalEdgeStyle;endArrow=blockThin;endFill=1;" edge="1" parent="1" source="ln7IvSCS3IytbbHzS-Sz-106" target="ln7IvSCS3IytbbHzS-Sz-113">
          <mxGeometry relative="1" as="geometry" />
        </mxCell>
        <mxCell id="ln7IvSCS3IytbbHzS-Sz-119" style="rounded=0;orthogonalLoop=1;jettySize=auto;html=1;exitX=1;exitY=0.75;exitDx=0;exitDy=0;entryX=0;entryY=0.5;entryDx=0;entryDy=0;edgeStyle=orthogonalEdgeStyle;endArrow=blockThin;endFill=1;" edge="1" parent="1" source="ln7IvSCS3IytbbHzS-Sz-106" target="ln7IvSCS3IytbbHzS-Sz-117">
          <mxGeometry relative="1" as="geometry" />
        </mxCell>
        <mxCell id="ln7IvSCS3IytbbHzS-Sz-106" value="Decoder" style="rounded=1;whiteSpace=wrap;html=1;" vertex="1" parent="1">
          <mxGeometry x="563" y="201" width="80" height="60" as="geometry" />
        </mxCell>
        <mxCell id="ln7IvSCS3IytbbHzS-Sz-113" value="\(Z_\theta(x)\)" style="rounded=1;whiteSpace=wrap;html=1;" vertex="1" parent="1">
          <mxGeometry x="682" y="191" width="60" height="30" as="geometry" />
        </mxCell>
        <mxCell id="ln7IvSCS3IytbbHzS-Sz-117" value="\(\pi_\theta(a | s, x)\)" style="rounded=1;whiteSpace=wrap;html=1;" vertex="1" parent="1">
          <mxGeometry x="682" y="241" width="60" height="30" as="geometry" />
        </mxCell>
        <mxCell id="ln7IvSCS3IytbbHzS-Sz-130" style="rounded=0;orthogonalLoop=1;jettySize=auto;html=1;exitX=1;exitY=0.5;exitDx=0;exitDy=0;entryX=0;entryY=0.5;entryDx=0;entryDy=0;edgeStyle=orthogonalEdgeStyle;endArrow=blockThin;endFill=1;" edge="1" parent="1" source="ln7IvSCS3IytbbHzS-Sz-131" target="ln7IvSCS3IytbbHzS-Sz-135">
          <mxGeometry relative="1" as="geometry" />
        </mxCell>
        <mxCell id="ln7IvSCS3IytbbHzS-Sz-131" value="" style="rounded=1;whiteSpace=wrap;html=1;" vertex="1" parent="1">
          <mxGeometry x="402.5" y="362" width="10" height="60" as="geometry" />
        </mxCell>
        <mxCell id="ln7IvSCS3IytbbHzS-Sz-132" style="rounded=0;orthogonalLoop=1;jettySize=auto;html=1;exitX=1;exitY=0.5;exitDx=0;exitDy=0;entryX=0;entryY=0.5;entryDx=0;entryDy=0;edgeStyle=orthogonalEdgeStyle;endArrow=blockThin;endFill=1;" edge="1" parent="1" source="ln7IvSCS3IytbbHzS-Sz-133" target="ln7IvSCS3IytbbHzS-Sz-131">
          <mxGeometry relative="1" as="geometry" />
        </mxCell>
        <mxCell id="ln7IvSCS3IytbbHzS-Sz-133" value="&lt;font face=&quot;Courier New&quot;&gt;[2, 1, 4]&amp;nbsp;&lt;/font&gt;&lt;b style=&quot;caret-color: rgb(32, 33, 36); color: rgb(32, 33, 36); font-family: &amp;quot;Google Sans&amp;quot;, arial, sans-serif; font-size: 14px; text-align: left;&quot;&gt;→&lt;/b&gt;&lt;font face=&quot;Courier New&quot;&gt;&amp;nbsp;[6, 5, 8]&lt;/font&gt;" style="rounded=0;whiteSpace=wrap;html=1;" vertex="1" parent="1">
          <mxGeometry x="202.5" y="362" width="170" height="60" as="geometry" />
        </mxCell>
        <mxCell id="ln7IvSCS3IytbbHzS-Sz-134" style="rounded=0;orthogonalLoop=1;jettySize=auto;html=1;exitX=1;exitY=0.5;exitDx=0;exitDy=0;entryX=0;entryY=0.5;entryDx=0;entryDy=0;edgeStyle=orthogonalEdgeStyle;endArrow=blockThin;endFill=1;" edge="1" parent="1" source="ln7IvSCS3IytbbHzS-Sz-135" target="ln7IvSCS3IytbbHzS-Sz-142">
          <mxGeometry relative="1" as="geometry" />
        </mxCell>
        <mxCell id="ln7IvSCS3IytbbHzS-Sz-135" value="Encoder" style="rounded=1;whiteSpace=wrap;html=1;" vertex="1" parent="1">
          <mxGeometry x="442.5" y="362" width="80" height="60" as="geometry" />
        </mxCell>
        <mxCell id="ln7IvSCS3IytbbHzS-Sz-136" style="rounded=0;orthogonalLoop=1;jettySize=auto;html=1;exitX=1;exitY=0.5;exitDx=0;exitDy=0;entryX=0;entryY=0.5;entryDx=0;entryDy=0;edgeStyle=orthogonalEdgeStyle;endArrow=blockThin;endFill=1;" edge="1" parent="1" source="ln7IvSCS3IytbbHzS-Sz-137" target="ln7IvSCS3IytbbHzS-Sz-139">
          <mxGeometry relative="1" as="geometry" />
        </mxCell>
        <mxCell id="ln7IvSCS3IytbbHzS-Sz-137" value="&lt;font face=&quot;Courier New&quot;&gt;[(\(\lambda\),&amp;nbsp;&lt;/font&gt;&lt;font face=&quot;Courier New&quot;&gt;map)]&lt;/font&gt;" style="rounded=0;whiteSpace=wrap;html=1;" vertex="1" parent="1">
          <mxGeometry x="202.5" y="442" width="170" height="60" as="geometry" />
        </mxCell>
        <mxCell id="ln7IvSCS3IytbbHzS-Sz-138" style="rounded=0;orthogonalLoop=1;jettySize=auto;html=1;exitX=1;exitY=0.5;exitDx=0;exitDy=0;entryX=0;entryY=0.75;entryDx=0;entryDy=0;edgeStyle=orthogonalEdgeStyle;endArrow=blockThin;endFill=1;" edge="1" parent="1" source="ln7IvSCS3IytbbHzS-Sz-139" target="ln7IvSCS3IytbbHzS-Sz-142">
          <mxGeometry relative="1" as="geometry" />
        </mxCell>
        <mxCell id="ln7IvSCS3IytbbHzS-Sz-139" value="" style="rounded=1;whiteSpace=wrap;html=1;" vertex="1" parent="1">
          <mxGeometry x="403.5" y="442" width="10" height="60" as="geometry" />
        </mxCell>
        <mxCell id="ln7IvSCS3IytbbHzS-Sz-140" style="rounded=0;orthogonalLoop=1;jettySize=auto;html=1;exitX=1;exitY=0.25;exitDx=0;exitDy=0;entryX=0;entryY=0.5;entryDx=0;entryDy=0;edgeStyle=orthogonalEdgeStyle;endArrow=blockThin;endFill=1;" edge="1" parent="1" source="ln7IvSCS3IytbbHzS-Sz-142" target="ln7IvSCS3IytbbHzS-Sz-144">
          <mxGeometry relative="1" as="geometry" />
        </mxCell>
        <mxCell id="ln7IvSCS3IytbbHzS-Sz-141" style="rounded=0;orthogonalLoop=1;jettySize=auto;html=1;exitX=1;exitY=0.75;exitDx=0;exitDy=0;entryX=0;entryY=0.5;entryDx=0;entryDy=0;edgeStyle=orthogonalEdgeStyle;endArrow=blockThin;endFill=1;" edge="1" parent="1" source="ln7IvSCS3IytbbHzS-Sz-142" target="ln7IvSCS3IytbbHzS-Sz-145">
          <mxGeometry relative="1" as="geometry" />
        </mxCell>
        <mxCell id="ln7IvSCS3IytbbHzS-Sz-142" value="Decoder" style="rounded=1;whiteSpace=wrap;html=1;" vertex="1" parent="1">
          <mxGeometry x="563.5" y="402" width="80" height="60" as="geometry" />
        </mxCell>
        <mxCell id="ln7IvSCS3IytbbHzS-Sz-144" value="\(Z_\theta(x)\)" style="rounded=1;whiteSpace=wrap;html=1;" vertex="1" parent="1">
          <mxGeometry x="682.5" y="392" width="60" height="30" as="geometry" />
        </mxCell>
        <mxCell id="ln7IvSCS3IytbbHzS-Sz-145" value="\(\pi_\theta(a | s, x)\)" style="rounded=1;whiteSpace=wrap;html=1;" vertex="1" parent="1">
          <mxGeometry x="682.5" y="442" width="60" height="30" as="geometry" />
        </mxCell>
        <mxCell id="ln7IvSCS3IytbbHzS-Sz-146" value="\(t_0\)" style="text;html=1;strokeColor=none;fillColor=none;align=center;verticalAlign=middle;whiteSpace=wrap;rounded=0;" vertex="1" parent="1">
          <mxGeometry y="213" width="60" height="30" as="geometry" />
        </mxCell>
        <mxCell id="ln7IvSCS3IytbbHzS-Sz-147" value="\(t_1\)" style="text;html=1;strokeColor=none;fillColor=none;align=center;verticalAlign=middle;whiteSpace=wrap;rounded=0;" vertex="1" parent="1">
          <mxGeometry x="3" y="412" width="60" height="30" as="geometry" />
        </mxCell>
        <mxCell id="ln7IvSCS3IytbbHzS-Sz-148" style="rounded=0;orthogonalLoop=1;jettySize=auto;html=1;exitX=1;exitY=0.5;exitDx=0;exitDy=0;entryX=0;entryY=0.5;entryDx=0;entryDy=0;edgeStyle=orthogonalEdgeStyle;endArrow=blockThin;endFill=1;" edge="1" parent="1" source="ln7IvSCS3IytbbHzS-Sz-149" target="ln7IvSCS3IytbbHzS-Sz-153">
          <mxGeometry relative="1" as="geometry" />
        </mxCell>
        <mxCell id="ln7IvSCS3IytbbHzS-Sz-149" value="" style="rounded=1;whiteSpace=wrap;html=1;" vertex="1" parent="1">
          <mxGeometry x="402.5" y="563" width="10" height="60" as="geometry" />
        </mxCell>
        <mxCell id="ln7IvSCS3IytbbHzS-Sz-150" style="rounded=0;orthogonalLoop=1;jettySize=auto;html=1;exitX=1;exitY=0.5;exitDx=0;exitDy=0;entryX=0;entryY=0.5;entryDx=0;entryDy=0;edgeStyle=orthogonalEdgeStyle;endArrow=blockThin;endFill=1;" edge="1" parent="1" source="ln7IvSCS3IytbbHzS-Sz-151" target="ln7IvSCS3IytbbHzS-Sz-149">
          <mxGeometry relative="1" as="geometry" />
        </mxCell>
        <mxCell id="ln7IvSCS3IytbbHzS-Sz-151" value="&lt;font face=&quot;Courier New&quot;&gt;[2, 1, 4]&amp;nbsp;&lt;/font&gt;&lt;b style=&quot;caret-color: rgb(32, 33, 36); color: rgb(32, 33, 36); font-family: &amp;quot;Google Sans&amp;quot;, arial, sans-serif; font-size: 14px; text-align: left;&quot;&gt;→&lt;/b&gt;&lt;font face=&quot;Courier New&quot;&gt;&amp;nbsp;[6, 5, 8]&lt;/font&gt;" style="rounded=0;whiteSpace=wrap;html=1;" vertex="1" parent="1">
          <mxGeometry x="202.5" y="563" width="170" height="60" as="geometry" />
        </mxCell>
        <mxCell id="ln7IvSCS3IytbbHzS-Sz-152" style="rounded=0;orthogonalLoop=1;jettySize=auto;html=1;exitX=1;exitY=0.5;exitDx=0;exitDy=0;entryX=0;entryY=0.5;entryDx=0;entryDy=0;edgeStyle=orthogonalEdgeStyle;endArrow=blockThin;endFill=1;" edge="1" parent="1" source="ln7IvSCS3IytbbHzS-Sz-153" target="ln7IvSCS3IytbbHzS-Sz-160">
          <mxGeometry relative="1" as="geometry" />
        </mxCell>
        <mxCell id="ln7IvSCS3IytbbHzS-Sz-153" value="Encoder" style="rounded=1;whiteSpace=wrap;html=1;" vertex="1" parent="1">
          <mxGeometry x="442.5" y="563" width="80" height="60" as="geometry" />
        </mxCell>
        <mxCell id="ln7IvSCS3IytbbHzS-Sz-154" style="rounded=0;orthogonalLoop=1;jettySize=auto;html=1;exitX=1;exitY=0.5;exitDx=0;exitDy=0;entryX=0;entryY=0.5;entryDx=0;entryDy=0;edgeStyle=orthogonalEdgeStyle;endArrow=blockThin;endFill=1;" edge="1" parent="1" source="ln7IvSCS3IytbbHzS-Sz-155" target="ln7IvSCS3IytbbHzS-Sz-157">
          <mxGeometry relative="1" as="geometry" />
        </mxCell>
        <mxCell id="ln7IvSCS3IytbbHzS-Sz-155" value="&lt;div style=&quot;&quot;&gt;&lt;div style=&quot;text-align: left;&quot;&gt;&lt;font style=&quot;border-color: var(--border-color);&quot; face=&quot;Courier New&quot;&gt;[(\(\lambda\),&amp;nbsp;&lt;/font&gt;&lt;font style=&quot;border-color: var(--border-color);&quot; face=&quot;Courier New&quot;&gt;map), (map,&amp;nbsp;&lt;/font&gt;&lt;b style=&quot;caret-color: rgb(32, 33, 36); color: rgb(32, 33, 36); font-family: &amp;quot;Google Sans&amp;quot;, arial, sans-serif; font-size: 14px; border-color: var(--border-color);&quot;&gt;&lt;font style=&quot;color: rgb(0, 0, 0); font-size: 12px; font-weight: normal; border-color: var(--border-color);&quot; face=&quot;Courier New&quot;&gt;+)&lt;/font&gt;&lt;font style=&quot;color: rgb(0, 0, 0); font-size: 12px; font-weight: normal; border-color: var(--border-color);&quot; face=&quot;Courier New&quot;&gt;]&lt;/font&gt;&lt;/b&gt;&lt;/div&gt;&lt;/div&gt;" style="rounded=0;whiteSpace=wrap;html=1;" vertex="1" parent="1">
          <mxGeometry x="202.5" y="643" width="170" height="60" as="geometry" />
        </mxCell>
        <mxCell id="ln7IvSCS3IytbbHzS-Sz-156" style="rounded=0;orthogonalLoop=1;jettySize=auto;html=1;exitX=1;exitY=0.5;exitDx=0;exitDy=0;entryX=0;entryY=0.75;entryDx=0;entryDy=0;edgeStyle=orthogonalEdgeStyle;endArrow=blockThin;endFill=1;" edge="1" parent="1" source="ln7IvSCS3IytbbHzS-Sz-157" target="ln7IvSCS3IytbbHzS-Sz-160">
          <mxGeometry relative="1" as="geometry" />
        </mxCell>
        <mxCell id="ln7IvSCS3IytbbHzS-Sz-157" value="" style="rounded=1;whiteSpace=wrap;html=1;" vertex="1" parent="1">
          <mxGeometry x="403.5" y="643" width="10" height="60" as="geometry" />
        </mxCell>
        <mxCell id="ln7IvSCS3IytbbHzS-Sz-158" style="rounded=0;orthogonalLoop=1;jettySize=auto;html=1;exitX=1;exitY=0.25;exitDx=0;exitDy=0;entryX=0;entryY=0.5;entryDx=0;entryDy=0;edgeStyle=orthogonalEdgeStyle;endArrow=blockThin;endFill=1;" edge="1" parent="1" source="ln7IvSCS3IytbbHzS-Sz-160" target="ln7IvSCS3IytbbHzS-Sz-162">
          <mxGeometry relative="1" as="geometry" />
        </mxCell>
        <mxCell id="ln7IvSCS3IytbbHzS-Sz-159" style="rounded=0;orthogonalLoop=1;jettySize=auto;html=1;exitX=1;exitY=0.75;exitDx=0;exitDy=0;entryX=0;entryY=0.5;entryDx=0;entryDy=0;edgeStyle=orthogonalEdgeStyle;endArrow=blockThin;endFill=1;" edge="1" parent="1" source="ln7IvSCS3IytbbHzS-Sz-160" target="ln7IvSCS3IytbbHzS-Sz-163">
          <mxGeometry relative="1" as="geometry" />
        </mxCell>
        <mxCell id="ln7IvSCS3IytbbHzS-Sz-160" value="Decoder" style="rounded=1;whiteSpace=wrap;html=1;" vertex="1" parent="1">
          <mxGeometry x="563.5" y="603" width="80" height="60" as="geometry" />
        </mxCell>
        <mxCell id="ln7IvSCS3IytbbHzS-Sz-162" value="\(Z_\theta(x)\)" style="rounded=1;whiteSpace=wrap;html=1;" vertex="1" parent="1">
          <mxGeometry x="682.5" y="593" width="60" height="30" as="geometry" />
        </mxCell>
        <mxCell id="ln7IvSCS3IytbbHzS-Sz-163" value="\(\pi_\theta(a | s, x)\)" style="rounded=1;whiteSpace=wrap;html=1;" vertex="1" parent="1">
          <mxGeometry x="682.5" y="643" width="60" height="30" as="geometry" />
        </mxCell>
        <mxCell id="ln7IvSCS3IytbbHzS-Sz-164" style="rounded=0;orthogonalLoop=1;jettySize=auto;html=1;exitX=1;exitY=0.5;exitDx=0;exitDy=0;entryX=0;entryY=0.5;entryDx=0;entryDy=0;edgeStyle=orthogonalEdgeStyle;endArrow=blockThin;endFill=1;" edge="1" parent="1" source="ln7IvSCS3IytbbHzS-Sz-165" target="ln7IvSCS3IytbbHzS-Sz-169">
          <mxGeometry relative="1" as="geometry" />
        </mxCell>
        <mxCell id="ln7IvSCS3IytbbHzS-Sz-165" value="" style="rounded=1;whiteSpace=wrap;html=1;" vertex="1" parent="1">
          <mxGeometry x="403" y="764" width="10" height="60" as="geometry" />
        </mxCell>
        <mxCell id="ln7IvSCS3IytbbHzS-Sz-166" style="rounded=0;orthogonalLoop=1;jettySize=auto;html=1;exitX=1;exitY=0.5;exitDx=0;exitDy=0;entryX=0;entryY=0.5;entryDx=0;entryDy=0;edgeStyle=orthogonalEdgeStyle;endArrow=blockThin;endFill=1;" edge="1" parent="1" source="ln7IvSCS3IytbbHzS-Sz-167" target="ln7IvSCS3IytbbHzS-Sz-165">
          <mxGeometry relative="1" as="geometry" />
        </mxCell>
        <mxCell id="ln7IvSCS3IytbbHzS-Sz-167" value="&lt;font face=&quot;Courier New&quot;&gt;[2, 1, 4]&amp;nbsp;&lt;/font&gt;&lt;b style=&quot;caret-color: rgb(32, 33, 36); color: rgb(32, 33, 36); font-family: &amp;quot;Google Sans&amp;quot;, arial, sans-serif; font-size: 14px; text-align: left;&quot;&gt;→&lt;/b&gt;&lt;font face=&quot;Courier New&quot;&gt;&amp;nbsp;[6, 5, 8]&lt;/font&gt;" style="rounded=0;whiteSpace=wrap;html=1;" vertex="1" parent="1">
          <mxGeometry x="203" y="764" width="170" height="60" as="geometry" />
        </mxCell>
        <mxCell id="ln7IvSCS3IytbbHzS-Sz-168" style="rounded=0;orthogonalLoop=1;jettySize=auto;html=1;exitX=1;exitY=0.5;exitDx=0;exitDy=0;entryX=0;entryY=0.5;entryDx=0;entryDy=0;edgeStyle=orthogonalEdgeStyle;endArrow=blockThin;endFill=1;" edge="1" parent="1" source="ln7IvSCS3IytbbHzS-Sz-169" target="ln7IvSCS3IytbbHzS-Sz-176">
          <mxGeometry relative="1" as="geometry" />
        </mxCell>
        <mxCell id="ln7IvSCS3IytbbHzS-Sz-169" value="Encoder" style="rounded=1;whiteSpace=wrap;html=1;" vertex="1" parent="1">
          <mxGeometry x="443" y="764" width="80" height="60" as="geometry" />
        </mxCell>
        <mxCell id="ln7IvSCS3IytbbHzS-Sz-170" style="rounded=0;orthogonalLoop=1;jettySize=auto;html=1;exitX=1;exitY=0.5;exitDx=0;exitDy=0;entryX=0;entryY=0.5;entryDx=0;entryDy=0;edgeStyle=orthogonalEdgeStyle;endArrow=blockThin;endFill=1;" edge="1" parent="1" source="ln7IvSCS3IytbbHzS-Sz-171" target="ln7IvSCS3IytbbHzS-Sz-173">
          <mxGeometry relative="1" as="geometry" />
        </mxCell>
        <mxCell id="ln7IvSCS3IytbbHzS-Sz-171" value="&lt;font style=&quot;border-color: var(--border-color); text-align: left;&quot; face=&quot;Courier New&quot;&gt;[(\(\lambda\),&amp;nbsp;&lt;/font&gt;&lt;font style=&quot;border-color: var(--border-color); text-align: left;&quot; face=&quot;Courier New&quot;&gt;map), (map,&amp;nbsp;&lt;/font&gt;&lt;b style=&quot;border-color: var(--border-color); text-align: left; caret-color: rgb(32, 33, 36); color: rgb(32, 33, 36); font-family: &amp;quot;Google Sans&amp;quot;, arial, sans-serif; font-size: 14px;&quot;&gt;&lt;font style=&quot;border-color: var(--border-color); color: rgb(0, 0, 0); font-size: 12px; font-weight: normal;&quot; face=&quot;Courier New&quot;&gt;+),&amp;nbsp;&lt;font style=&quot;border-color: var(--border-color); caret-color: rgb(0, 0, 0);&quot; face=&quot;Courier New&quot;&gt;(&lt;/font&gt;&lt;b style=&quot;border-color: var(--border-color); color: rgb(32, 33, 36); font-family: &amp;quot;Google Sans&amp;quot;, arial, sans-serif; font-size: 14px;&quot;&gt;&lt;font style=&quot;border-color: var(--border-color); color: rgb(0, 0, 0); font-size: 12px; font-weight: normal;&quot; face=&quot;Courier New&quot;&gt;+, 4)&lt;/font&gt;&lt;/b&gt;&lt;/font&gt;&lt;font style=&quot;border-color: var(--border-color); color: rgb(0, 0, 0); font-size: 12px; font-weight: normal;&quot; face=&quot;Courier New&quot;&gt;]&lt;/font&gt;&lt;/b&gt;" style="rounded=0;whiteSpace=wrap;html=1;" vertex="1" parent="1">
          <mxGeometry x="203" y="844" width="170" height="60" as="geometry" />
        </mxCell>
        <mxCell id="ln7IvSCS3IytbbHzS-Sz-172" style="rounded=0;orthogonalLoop=1;jettySize=auto;html=1;exitX=1;exitY=0.5;exitDx=0;exitDy=0;entryX=0;entryY=0.75;entryDx=0;entryDy=0;edgeStyle=orthogonalEdgeStyle;endArrow=blockThin;endFill=1;" edge="1" parent="1" source="ln7IvSCS3IytbbHzS-Sz-173" target="ln7IvSCS3IytbbHzS-Sz-176">
          <mxGeometry relative="1" as="geometry" />
        </mxCell>
        <mxCell id="ln7IvSCS3IytbbHzS-Sz-173" value="" style="rounded=1;whiteSpace=wrap;html=1;" vertex="1" parent="1">
          <mxGeometry x="404" y="844" width="10" height="60" as="geometry" />
        </mxCell>
        <mxCell id="ln7IvSCS3IytbbHzS-Sz-174" style="rounded=0;orthogonalLoop=1;jettySize=auto;html=1;exitX=1;exitY=0.25;exitDx=0;exitDy=0;entryX=0;entryY=0.5;entryDx=0;entryDy=0;edgeStyle=orthogonalEdgeStyle;endArrow=blockThin;endFill=1;" edge="1" parent="1" source="ln7IvSCS3IytbbHzS-Sz-176" target="ln7IvSCS3IytbbHzS-Sz-178">
          <mxGeometry relative="1" as="geometry" />
        </mxCell>
        <mxCell id="ln7IvSCS3IytbbHzS-Sz-175" style="rounded=0;orthogonalLoop=1;jettySize=auto;html=1;exitX=1;exitY=0.75;exitDx=0;exitDy=0;entryX=0;entryY=0.5;entryDx=0;entryDy=0;edgeStyle=orthogonalEdgeStyle;endArrow=blockThin;endFill=1;" edge="1" parent="1" source="ln7IvSCS3IytbbHzS-Sz-176" target="ln7IvSCS3IytbbHzS-Sz-179">
          <mxGeometry relative="1" as="geometry" />
        </mxCell>
        <mxCell id="ln7IvSCS3IytbbHzS-Sz-176" value="Decoder" style="rounded=1;whiteSpace=wrap;html=1;" vertex="1" parent="1">
          <mxGeometry x="564" y="804" width="80" height="60" as="geometry" />
        </mxCell>
        <mxCell id="ln7IvSCS3IytbbHzS-Sz-178" value="\(Z_\theta(x)\)" style="rounded=1;whiteSpace=wrap;html=1;" vertex="1" parent="1">
          <mxGeometry x="683" y="794" width="60" height="30" as="geometry" />
        </mxCell>
        <mxCell id="ln7IvSCS3IytbbHzS-Sz-179" value="\(\pi_\theta(a | s, x)\)" style="rounded=1;whiteSpace=wrap;html=1;" vertex="1" parent="1">
          <mxGeometry x="683" y="844" width="60" height="30" as="geometry" />
        </mxCell>
        <mxCell id="ln7IvSCS3IytbbHzS-Sz-180" value="\(t_2\)" style="text;html=1;strokeColor=none;fillColor=none;align=center;verticalAlign=middle;whiteSpace=wrap;rounded=0;" vertex="1" parent="1">
          <mxGeometry x="1.5" y="612" width="60" height="30" as="geometry" />
        </mxCell>
        <mxCell id="ln7IvSCS3IytbbHzS-Sz-181" value="\(t_3\)" style="text;html=1;strokeColor=none;fillColor=none;align=center;verticalAlign=middle;whiteSpace=wrap;rounded=0;" vertex="1" parent="1">
          <mxGeometry x="3.5" y="813" width="60" height="30" as="geometry" />
        </mxCell>
        <mxCell id="ln7IvSCS3IytbbHzS-Sz-217" style="edgeStyle=none;rounded=0;orthogonalLoop=1;jettySize=auto;html=1;exitX=0;exitY=1;exitDx=0;exitDy=0;entryX=0.5;entryY=0;entryDx=0;entryDy=0;endArrow=blockThin;endFill=1;curved=0;" edge="1" parent="1" source="ln7IvSCS3IytbbHzS-Sz-219" target="ln7IvSCS3IytbbHzS-Sz-221">
          <mxGeometry relative="1" as="geometry" />
        </mxCell>
        <mxCell id="ln7IvSCS3IytbbHzS-Sz-218" style="edgeStyle=none;rounded=0;orthogonalLoop=1;jettySize=auto;html=1;exitX=1;exitY=1;exitDx=0;exitDy=0;entryX=0.5;entryY=0;entryDx=0;entryDy=0;endArrow=blockThin;endFill=1;" edge="1" parent="1" source="ln7IvSCS3IytbbHzS-Sz-219" target="ln7IvSCS3IytbbHzS-Sz-223">
          <mxGeometry relative="1" as="geometry" />
        </mxCell>
        <mxCell id="ln7IvSCS3IytbbHzS-Sz-219" value="&lt;font face=&quot;Courier New&quot;&gt;map&lt;/font&gt;" style="rounded=0;whiteSpace=wrap;html=1;" vertex="1" parent="1">
          <mxGeometry x="70" y="1021" width="30" height="21" as="geometry" />
        </mxCell>
        <mxCell id="ln7IvSCS3IytbbHzS-Sz-220" style="edgeStyle=none;rounded=0;orthogonalLoop=1;jettySize=auto;html=1;exitX=0.5;exitY=1;exitDx=0;exitDy=0;entryX=0.5;entryY=0;entryDx=0;entryDy=0;endArrow=blockThin;endFill=1;" edge="1" parent="1" source="ln7IvSCS3IytbbHzS-Sz-221" target="ln7IvSCS3IytbbHzS-Sz-222">
          <mxGeometry relative="1" as="geometry" />
        </mxCell>
        <mxCell id="ln7IvSCS3IytbbHzS-Sz-221" value="&lt;font face=&quot;Courier New&quot;&gt;+&lt;/font&gt;" style="rounded=0;whiteSpace=wrap;html=1;" vertex="1" parent="1">
          <mxGeometry x="40" y="1061" width="30" height="21" as="geometry" />
        </mxCell>
        <mxCell id="ln7IvSCS3IytbbHzS-Sz-222" value="&lt;font face=&quot;Courier New&quot;&gt;4&lt;/font&gt;" style="rounded=0;whiteSpace=wrap;html=1;" vertex="1" parent="1">
          <mxGeometry x="40" y="1101" width="30" height="21" as="geometry" />
        </mxCell>
        <mxCell id="ln7IvSCS3IytbbHzS-Sz-223" value="&lt;font face=&quot;Courier New&quot;&gt;var0&lt;/font&gt;" style="rounded=0;whiteSpace=wrap;html=1;" vertex="1" parent="1">
          <mxGeometry x="95" y="1061" width="30" height="21" as="geometry" />
        </mxCell>
        <mxCell id="ln7IvSCS3IytbbHzS-Sz-225" style="edgeStyle=none;rounded=0;orthogonalLoop=1;jettySize=auto;html=1;exitX=0.5;exitY=1;exitDx=0;exitDy=0;entryX=0.5;entryY=0;entryDx=0;entryDy=0;endArrow=blockThin;endFill=1;" edge="1" parent="1" source="ln7IvSCS3IytbbHzS-Sz-224" target="ln7IvSCS3IytbbHzS-Sz-219">
          <mxGeometry relative="1" as="geometry" />
        </mxCell>
        <mxCell id="ln7IvSCS3IytbbHzS-Sz-224" value="&lt;font face=&quot;Courier New&quot;&gt;\(\lambda\)&lt;/font&gt;" style="rounded=0;whiteSpace=wrap;html=1;" vertex="1" parent="1">
          <mxGeometry x="70" y="985" width="30" height="21" as="geometry" />
        </mxCell>
        <mxCell id="ln7IvSCS3IytbbHzS-Sz-229" style="rounded=0;orthogonalLoop=1;jettySize=auto;html=1;exitX=1;exitY=0.5;exitDx=0;exitDy=0;entryX=0;entryY=0.5;entryDx=0;entryDy=0;edgeStyle=orthogonalEdgeStyle;endArrow=blockThin;endFill=1;" edge="1" parent="1" source="ln7IvSCS3IytbbHzS-Sz-230" target="ln7IvSCS3IytbbHzS-Sz-234">
          <mxGeometry relative="1" as="geometry" />
        </mxCell>
        <mxCell id="ln7IvSCS3IytbbHzS-Sz-230" value="" style="rounded=1;whiteSpace=wrap;html=1;" vertex="1" parent="1">
          <mxGeometry x="402" y="965" width="10" height="60" as="geometry" />
        </mxCell>
        <mxCell id="ln7IvSCS3IytbbHzS-Sz-231" style="rounded=0;orthogonalLoop=1;jettySize=auto;html=1;exitX=1;exitY=0.5;exitDx=0;exitDy=0;entryX=0;entryY=0.5;entryDx=0;entryDy=0;edgeStyle=orthogonalEdgeStyle;endArrow=blockThin;endFill=1;" edge="1" parent="1" source="ln7IvSCS3IytbbHzS-Sz-232" target="ln7IvSCS3IytbbHzS-Sz-230">
          <mxGeometry relative="1" as="geometry" />
        </mxCell>
        <mxCell id="ln7IvSCS3IytbbHzS-Sz-232" value="&lt;font face=&quot;Courier New&quot;&gt;[2, 1, 4]&amp;nbsp;&lt;/font&gt;&lt;b style=&quot;caret-color: rgb(32, 33, 36); color: rgb(32, 33, 36); font-family: &amp;quot;Google Sans&amp;quot;, arial, sans-serif; font-size: 14px; text-align: left;&quot;&gt;→&lt;/b&gt;&lt;font face=&quot;Courier New&quot;&gt;&amp;nbsp;[6, 5, 8]&lt;/font&gt;" style="rounded=0;whiteSpace=wrap;html=1;" vertex="1" parent="1">
          <mxGeometry x="202" y="965" width="170" height="60" as="geometry" />
        </mxCell>
        <mxCell id="ln7IvSCS3IytbbHzS-Sz-233" style="rounded=0;orthogonalLoop=1;jettySize=auto;html=1;exitX=1;exitY=0.5;exitDx=0;exitDy=0;entryX=0;entryY=0.5;entryDx=0;entryDy=0;edgeStyle=orthogonalEdgeStyle;endArrow=blockThin;endFill=1;" edge="1" parent="1" source="ln7IvSCS3IytbbHzS-Sz-234" target="ln7IvSCS3IytbbHzS-Sz-241">
          <mxGeometry relative="1" as="geometry" />
        </mxCell>
        <mxCell id="ln7IvSCS3IytbbHzS-Sz-234" value="Encoder" style="rounded=1;whiteSpace=wrap;html=1;" vertex="1" parent="1">
          <mxGeometry x="442" y="965" width="80" height="60" as="geometry" />
        </mxCell>
        <mxCell id="ln7IvSCS3IytbbHzS-Sz-235" style="rounded=0;orthogonalLoop=1;jettySize=auto;html=1;exitX=1;exitY=0.5;exitDx=0;exitDy=0;entryX=0;entryY=0.5;entryDx=0;entryDy=0;edgeStyle=orthogonalEdgeStyle;endArrow=blockThin;endFill=1;" edge="1" parent="1" source="ln7IvSCS3IytbbHzS-Sz-236" target="ln7IvSCS3IytbbHzS-Sz-238">
          <mxGeometry relative="1" as="geometry" />
        </mxCell>
        <mxCell id="ln7IvSCS3IytbbHzS-Sz-236" value="&lt;font style=&quot;font-size: 12px;&quot;&gt;&lt;font style=&quot;border-color: var(--border-color); text-align: left;&quot; face=&quot;Courier New&quot;&gt;[(\(\lambda\),&amp;nbsp;&lt;/font&gt;&lt;font style=&quot;border-color: var(--border-color); text-align: left;&quot; face=&quot;Courier New&quot;&gt;map), (map,&amp;nbsp;&lt;/font&gt;&lt;b style=&quot;border-color: var(--border-color); text-align: left; caret-color: rgb(32, 33, 36); color: rgb(32, 33, 36); font-family: &amp;quot;Google Sans&amp;quot;, arial, sans-serif;&quot;&gt;&lt;font style=&quot;border-color: var(--border-color); color: rgb(0, 0, 0); font-weight: normal;&quot; face=&quot;Courier New&quot;&gt;+),&amp;nbsp;&lt;br&gt;&lt;font style=&quot;border-color: var(--border-color); caret-color: rgb(0, 0, 0);&quot; face=&quot;Courier New&quot;&gt;(&lt;/font&gt;&lt;b style=&quot;border-color: var(--border-color); color: rgb(32, 33, 36); font-family: &amp;quot;Google Sans&amp;quot;, arial, sans-serif;&quot;&gt;&lt;font style=&quot;border-color: var(--border-color); color: rgb(0, 0, 0); font-weight: normal;&quot; face=&quot;Courier New&quot;&gt;+, 4),&amp;nbsp;&lt;/font&gt;&lt;/b&gt;&lt;/font&gt;&lt;font style=&quot;border-color: var(--border-color); color: rgb(0, 0, 0); font-weight: normal;&quot; face=&quot;Courier New&quot;&gt;(map, var0)]&lt;/font&gt;&lt;/b&gt;&lt;/font&gt;" style="rounded=0;whiteSpace=wrap;html=1;" vertex="1" parent="1">
          <mxGeometry x="201" y="1045" width="171" height="60" as="geometry" />
        </mxCell>
        <mxCell id="ln7IvSCS3IytbbHzS-Sz-237" style="rounded=0;orthogonalLoop=1;jettySize=auto;html=1;exitX=1;exitY=0.5;exitDx=0;exitDy=0;entryX=0;entryY=0.75;entryDx=0;entryDy=0;edgeStyle=orthogonalEdgeStyle;endArrow=blockThin;endFill=1;" edge="1" parent="1" source="ln7IvSCS3IytbbHzS-Sz-238" target="ln7IvSCS3IytbbHzS-Sz-241">
          <mxGeometry relative="1" as="geometry" />
        </mxCell>
        <mxCell id="ln7IvSCS3IytbbHzS-Sz-238" value="" style="rounded=1;whiteSpace=wrap;html=1;" vertex="1" parent="1">
          <mxGeometry x="403" y="1045" width="10" height="60" as="geometry" />
        </mxCell>
        <mxCell id="ln7IvSCS3IytbbHzS-Sz-239" style="rounded=0;orthogonalLoop=1;jettySize=auto;html=1;exitX=1;exitY=0.25;exitDx=0;exitDy=0;entryX=0;entryY=0.5;entryDx=0;entryDy=0;edgeStyle=orthogonalEdgeStyle;endArrow=blockThin;endFill=1;" edge="1" parent="1" source="ln7IvSCS3IytbbHzS-Sz-241" target="ln7IvSCS3IytbbHzS-Sz-242">
          <mxGeometry relative="1" as="geometry" />
        </mxCell>
        <mxCell id="ln7IvSCS3IytbbHzS-Sz-240" style="rounded=0;orthogonalLoop=1;jettySize=auto;html=1;exitX=1;exitY=0.75;exitDx=0;exitDy=0;entryX=0;entryY=0.5;entryDx=0;entryDy=0;edgeStyle=orthogonalEdgeStyle;endArrow=blockThin;endFill=1;" edge="1" parent="1" source="ln7IvSCS3IytbbHzS-Sz-241" target="ln7IvSCS3IytbbHzS-Sz-243">
          <mxGeometry relative="1" as="geometry" />
        </mxCell>
        <mxCell id="ln7IvSCS3IytbbHzS-Sz-241" value="Decoder" style="rounded=1;whiteSpace=wrap;html=1;" vertex="1" parent="1">
          <mxGeometry x="563" y="1005" width="80" height="60" as="geometry" />
        </mxCell>
        <mxCell id="ln7IvSCS3IytbbHzS-Sz-242" value="\(Z_\theta(x)\)" style="rounded=1;whiteSpace=wrap;html=1;" vertex="1" parent="1">
          <mxGeometry x="682" y="995" width="60" height="30" as="geometry" />
        </mxCell>
        <mxCell id="ln7IvSCS3IytbbHzS-Sz-243" value="\(\pi_\theta(a | s, x)\)" style="rounded=1;whiteSpace=wrap;html=1;" vertex="1" parent="1">
          <mxGeometry x="682" y="1045" width="60" height="30" as="geometry" />
        </mxCell>
        <mxCell id="ln7IvSCS3IytbbHzS-Sz-244" style="edgeStyle=none;rounded=0;orthogonalLoop=1;jettySize=auto;html=1;exitX=0;exitY=0.5;exitDx=0;exitDy=0;" edge="1" parent="1" source="ln7IvSCS3IytbbHzS-Sz-236" target="ln7IvSCS3IytbbHzS-Sz-236">
          <mxGeometry relative="1" as="geometry" />
        </mxCell>
        <mxCell id="ln7IvSCS3IytbbHzS-Sz-245" value="\(t_4\)" style="text;html=1;strokeColor=none;fillColor=none;align=center;verticalAlign=middle;whiteSpace=wrap;rounded=0;" vertex="1" parent="1">
          <mxGeometry x="1.5" y="1005" width="60" height="30" as="geometry" />
        </mxCell>
        <mxCell id="ln7IvSCS3IytbbHzS-Sz-249" style="edgeStyle=none;rounded=0;orthogonalLoop=1;jettySize=auto;html=1;exitX=0;exitY=1;exitDx=0;exitDy=0;entryX=0.5;entryY=0;entryDx=0;entryDy=0;endArrow=blockThin;endFill=1;curved=0;" edge="1" parent="1" source="ln7IvSCS3IytbbHzS-Sz-251" target="ln7IvSCS3IytbbHzS-Sz-253">
          <mxGeometry relative="1" as="geometry" />
        </mxCell>
        <mxCell id="ln7IvSCS3IytbbHzS-Sz-251" value="&lt;font face=&quot;Courier New&quot;&gt;map&lt;/font&gt;" style="rounded=0;whiteSpace=wrap;html=1;" vertex="1" parent="1">
          <mxGeometry x="68.5" y="837" width="30" height="21" as="geometry" />
        </mxCell>
        <mxCell id="ln7IvSCS3IytbbHzS-Sz-252" style="edgeStyle=none;rounded=0;orthogonalLoop=1;jettySize=auto;html=1;exitX=0.5;exitY=1;exitDx=0;exitDy=0;entryX=0.5;entryY=0;entryDx=0;entryDy=0;endArrow=blockThin;endFill=1;" edge="1" parent="1" source="ln7IvSCS3IytbbHzS-Sz-253">
          <mxGeometry relative="1" as="geometry">
            <mxPoint x="53.5" y="917" as="targetPoint" />
          </mxGeometry>
        </mxCell>
        <mxCell id="ln7IvSCS3IytbbHzS-Sz-253" value="&lt;font face=&quot;Courier New&quot;&gt;+&lt;/font&gt;" style="rounded=0;whiteSpace=wrap;html=1;" vertex="1" parent="1">
          <mxGeometry x="38.5" y="877" width="30" height="21" as="geometry" />
        </mxCell>
        <mxCell id="ln7IvSCS3IytbbHzS-Sz-254" value="&lt;font face=&quot;Courier New&quot;&gt;4&lt;/font&gt;" style="rounded=0;whiteSpace=wrap;html=1;" vertex="1" parent="1">
          <mxGeometry x="38.5" y="918" width="30" height="21" as="geometry" />
        </mxCell>
        <mxCell id="ln7IvSCS3IytbbHzS-Sz-256" style="edgeStyle=none;rounded=0;orthogonalLoop=1;jettySize=auto;html=1;exitX=0.5;exitY=1;exitDx=0;exitDy=0;entryX=0.5;entryY=0;entryDx=0;entryDy=0;endArrow=blockThin;endFill=1;" edge="1" parent="1" source="ln7IvSCS3IytbbHzS-Sz-257" target="ln7IvSCS3IytbbHzS-Sz-251">
          <mxGeometry relative="1" as="geometry" />
        </mxCell>
        <mxCell id="ln7IvSCS3IytbbHzS-Sz-257" value="&lt;font face=&quot;Courier New&quot;&gt;\(\lambda\)&lt;/font&gt;" style="rounded=0;whiteSpace=wrap;html=1;" vertex="1" parent="1">
          <mxGeometry x="68.5" y="801" width="30" height="21" as="geometry" />
        </mxCell>
        <mxCell id="ln7IvSCS3IytbbHzS-Sz-258" style="edgeStyle=none;rounded=0;orthogonalLoop=1;jettySize=auto;html=1;exitX=0;exitY=1;exitDx=0;exitDy=0;entryX=0.5;entryY=0;entryDx=0;entryDy=0;endArrow=blockThin;endFill=1;curved=0;" edge="1" parent="1" source="ln7IvSCS3IytbbHzS-Sz-259" target="ln7IvSCS3IytbbHzS-Sz-261">
          <mxGeometry relative="1" as="geometry" />
        </mxCell>
        <mxCell id="ln7IvSCS3IytbbHzS-Sz-259" value="&lt;font face=&quot;Courier New&quot;&gt;map&lt;/font&gt;" style="rounded=0;whiteSpace=wrap;html=1;" vertex="1" parent="1">
          <mxGeometry x="65" y="636" width="30" height="21" as="geometry" />
        </mxCell>
        <mxCell id="ln7IvSCS3IytbbHzS-Sz-261" value="&lt;font face=&quot;Courier New&quot;&gt;+&lt;/font&gt;" style="rounded=0;whiteSpace=wrap;html=1;" vertex="1" parent="1">
          <mxGeometry x="35" y="676" width="30" height="21" as="geometry" />
        </mxCell>
        <mxCell id="ln7IvSCS3IytbbHzS-Sz-263" style="edgeStyle=none;rounded=0;orthogonalLoop=1;jettySize=auto;html=1;exitX=0.5;exitY=1;exitDx=0;exitDy=0;entryX=0.5;entryY=0;entryDx=0;entryDy=0;endArrow=blockThin;endFill=1;" edge="1" parent="1" source="ln7IvSCS3IytbbHzS-Sz-264" target="ln7IvSCS3IytbbHzS-Sz-259">
          <mxGeometry relative="1" as="geometry" />
        </mxCell>
        <mxCell id="ln7IvSCS3IytbbHzS-Sz-264" value="&lt;font face=&quot;Courier New&quot;&gt;\(\lambda\)&lt;/font&gt;" style="rounded=0;whiteSpace=wrap;html=1;" vertex="1" parent="1">
          <mxGeometry x="65" y="600" width="30" height="21" as="geometry" />
        </mxCell>
        <mxCell id="ln7IvSCS3IytbbHzS-Sz-266" value="&lt;font face=&quot;Courier New&quot;&gt;map&lt;/font&gt;" style="rounded=0;whiteSpace=wrap;html=1;" vertex="1" parent="1">
          <mxGeometry x="65" y="438" width="30" height="21" as="geometry" />
        </mxCell>
        <mxCell id="ln7IvSCS3IytbbHzS-Sz-268" style="edgeStyle=none;rounded=0;orthogonalLoop=1;jettySize=auto;html=1;exitX=0.5;exitY=1;exitDx=0;exitDy=0;entryX=0.5;entryY=0;entryDx=0;entryDy=0;endArrow=blockThin;endFill=1;" edge="1" parent="1" source="ln7IvSCS3IytbbHzS-Sz-269" target="ln7IvSCS3IytbbHzS-Sz-266">
          <mxGeometry relative="1" as="geometry" />
        </mxCell>
        <mxCell id="ln7IvSCS3IytbbHzS-Sz-269" value="&lt;font face=&quot;Courier New&quot;&gt;\(\lambda\)&lt;/font&gt;" style="rounded=0;whiteSpace=wrap;html=1;" vertex="1" parent="1">
          <mxGeometry x="65" y="402" width="30" height="21" as="geometry" />
        </mxCell>
        <mxCell id="ln7IvSCS3IytbbHzS-Sz-272" value="&lt;font face=&quot;Courier New&quot;&gt;\(\lambda\)&lt;/font&gt;" style="rounded=0;whiteSpace=wrap;html=1;" vertex="1" parent="1">
          <mxGeometry x="65" y="199.5" width="30" height="21" as="geometry" />
        </mxCell>
      </root>
    </mxGraphModel>
  </diagram>
</mxfile>
